<svg aria-hidden="true" style="position:absolute;width:0;height:0;overflow:hidden" xmlns="http://www.w3.org/2000/svg"><defs><symbol id="icon-Tel" viewBox="0 0 284 32"><path d="M49.379 15.049h5.195v3.035h-5.195v5.92h-3.227v-5.92h-5.223v-3.035h5.223V9.512h3.227v5.537zm12.126-.52h2.023c1.021-.009 1.827-.273 2.42-.793.602-.52.902-1.271.902-2.256 0-.948-.251-1.682-.752-2.201-.492-.529-1.249-.793-2.269-.793-.893 0-1.627.26-2.201.779-.574.51-.861 1.18-.861 2.01h-3.322c0-1.021.269-1.951.807-2.789.547-.839 1.303-1.49 2.27-1.955.975-.474 2.064-.711 3.268-.711 1.987 0 3.545.501 4.676 1.504 1.139.993 1.709 2.379 1.709 4.156 0 .893-.287 1.736-.861 2.529a5.329 5.329 0 0 1-2.201 1.777c1.094.374 1.923.962 2.488 1.764.574.802.861 1.759.861 2.871 0 1.787-.615 3.208-1.846 4.266-1.221 1.057-2.83 1.586-4.826 1.586-1.914 0-3.482-.51-4.703-1.531s-1.832-2.379-1.832-4.074h3.322c0 .875.292 1.586.875 2.133.592.547 1.385.82 2.379.82 1.03 0 1.841-.273 2.434-.82s.889-1.34.889-2.379c0-1.048-.31-1.855-.93-2.42s-1.54-.848-2.762-.848h-1.955v-2.625zm25.17-3.185c0 .975-.251 1.846-.752 2.611-.501.756-1.185 1.354-2.051 1.791 1.039.483 1.837 1.144 2.393 1.982.565.839.848 1.786.848 2.844 0 1.75-.592 3.14-1.777 4.17-1.185 1.021-2.762 1.531-4.73 1.531-1.978 0-3.564-.515-4.758-1.545-1.185-1.03-1.777-2.415-1.777-4.156 0-1.066.283-2.023.848-2.871s1.358-1.499 2.379-1.955c-.857-.438-1.536-1.035-2.037-1.791-.492-.766-.738-1.636-.738-2.611 0-1.695.547-3.04 1.641-4.033s2.57-1.49 4.43-1.49c1.868 0 3.35.497 4.443 1.49s1.641 2.338 1.641 4.033zm-2.885 9.064c0-.984-.296-1.777-.889-2.379-.583-.611-1.358-.916-2.324-.916s-1.741.301-2.324.902c-.574.602-.861 1.399-.861 2.393 0 .975.283 1.755.848 2.338.574.583 1.363.875 2.365.875s1.782-.282 2.338-.848c.565-.565.848-1.353.848-2.365zm-.424-8.941c0-.866-.251-1.577-.752-2.133-.501-.565-1.176-.848-2.023-.848s-1.518.269-2.01.807c-.492.529-.738 1.253-.738 2.174 0 .911.246 1.636.738 2.174.501.538 1.176.807 2.023.807s1.518-.269 2.01-.807c.501-.538.752-1.262.752-2.174zm27.753 6.152c0 2.862-.538 5.022-1.613 6.48-1.066 1.449-2.693 2.174-4.881 2.174-2.151 0-3.773-.706-4.867-2.119-1.085-1.422-1.641-3.523-1.668-6.303v-3.445c0-2.862.533-5.008 1.6-6.439 1.076-1.431 2.712-2.146 4.908-2.146 2.178 0 3.801.697 4.867 2.092 1.076 1.395 1.627 3.482 1.654 6.262v3.445zm-3.322-3.719c0-1.869-.255-3.236-.766-4.102-.51-.875-1.322-1.313-2.434-1.313-1.085 0-1.882.415-2.393 1.244-.51.82-.779 2.105-.807 3.855v4.512c0 1.859.26 3.245.779 4.156s1.335 1.367 2.447 1.367c1.066 0 1.855-.419 2.365-1.258.51-.848.779-2.169.807-3.965v-4.498zm16.241 3.774c-1.112 1.176-2.411 1.764-3.896 1.764-1.75 0-3.145-.611-4.184-1.832-1.039-1.23-1.559-2.844-1.559-4.84 0-1.313.264-2.502.793-3.568s1.281-1.896 2.256-2.488c.975-.592 2.106-.889 3.391-.889 2.005 0 3.596.747 4.772 2.242s1.764 3.495 1.764 6.002v.93c0 3.591-.811 6.33-2.434 8.217s-4.042 2.844-7.26 2.871h-.396v-2.748h.478c1.96-.027 3.464-.497 4.512-1.408 1.048-.921 1.636-2.338 1.764-4.252zm-3.199-.834c.665 0 1.29-.191 1.873-.574s1.034-.911 1.353-1.586v-1.299c0-1.467-.301-2.648-.902-3.541s-1.381-1.34-2.338-1.34-1.723.396-2.297 1.189c-.565.784-.848 1.777-.848 2.98 0 1.249.287 2.256.861 3.021s1.34 1.148 2.297 1.148zm20.589-10.842v2.748h-.41c-1.859.027-3.345.538-4.457 1.531s-1.773 2.402-1.982 4.225c1.066-1.121 2.429-1.682 4.088-1.682 1.759 0 3.145.62 4.156 1.859 1.021 1.24 1.531 2.839 1.531 4.799 0 2.023-.597 3.664-1.791 4.922-1.185 1.249-2.744 1.873-4.676 1.873-1.987 0-3.6-.734-4.84-2.201-1.231-1.467-1.846-3.391-1.846-5.769v-1.135c0-3.491.848-6.225 2.543-8.203 1.704-1.978 4.152-2.967 7.342-2.967h.342zM137.86 15.5a3.602 3.602 0 0 0-3.336 2.256v1.012c0 1.477.31 2.652.93 3.527.62.866 1.422 1.299 2.406 1.299s1.764-.369 2.338-1.107c.574-.738.861-1.709.861-2.912s-.292-2.183-.875-2.939-1.358-1.135-2.324-1.135zM164.095 26h-3.309V10.018l-4.881 1.668V8.883l7.766-2.857h.424v19.975zm16.474 0h-3.309V10.018l-4.881 1.668V8.883l7.766-2.857h.424v19.975zm16.474 0h-3.309V10.018l-4.881 1.668V8.883l7.766-2.857h.424v19.975zm24.007 0h-3.308V10.018l-4.882 1.668V8.883l7.766-2.857h.424v19.975zm16.474 0h-3.308V10.018l-4.882 1.668V8.883l7.766-2.857h.424v19.975zm24.006 0h-3.308V10.018l-4.88 1.668V8.883l7.766-2.857h.422v19.975zm16.474 0h-3.308V10.018l-4.88 1.668V8.883l7.766-2.857h.422v19.975zM17 0H3C1.346 0 0 1.346 0 3v26c0 1.654 1.346 3 3 3h14c1.654 0 3-1.346 3-3V3c0-1.654-1.346-3-3-3zM3 2h14a1 1 0 0 1 1 1v21H2V3a1 1 0 0 1 1-1zm14 28H3a1 1 0 0 1-1-1v-3h16v3a1 1 0 0 1-1 1z"/><path fill="#757575" style="fill:var(--color1, #757575)" d="M4.707 27.478c.391.365.391.956 0 1.321s-1.024.365-1.414 0c-.391-.365-.391-.956 0-1.321s1.024-.365 1.414 0z"/></symbol><symbol id="icon-E-mail" viewBox="0 0 303 32"><path d="M53.87 24.471h-3.127V10.548h3.127v13.923zM50.55 6.932c0-.48.15-.879.45-1.197.309-.317.746-.476 1.312-.476s1.004.159 1.313.476c.309.317.463.716.463 1.197 0 .472-.155.866-.463 1.184-.309.309-.746.463-1.313.463S51.308 8.425 51 8.116c-.3-.317-.45-.712-.45-1.184zm10.165 3.616.09 1.608c1.029-1.244 2.38-1.866 4.053-1.866 2.899 0 4.375 1.66 4.426 4.98v9.2h-3.127v-9.02c0-.884-.193-1.536-.579-1.956-.377-.429-.999-.643-1.866-.643-1.261 0-2.2.57-2.818 1.711v9.908h-3.127V10.547h2.947zm13.394 13.923V12.864h-2.123v-2.316h2.123V9.274c0-1.544.429-2.737 1.287-3.577s2.059-1.261 3.603-1.261c.549 0 1.132.077 1.75.232l-.077 2.445a6.13 6.13 0 0 0-1.197-.103c-1.493 0-2.239.768-2.239 2.303v1.235h2.831v2.316h-2.831v11.607h-3.127zm8.184-7.09c0-1.364.27-2.591.811-3.68.54-1.098 1.3-1.939 2.278-2.522.978-.592 2.102-.888 3.371-.888 1.879 0 3.401.605 4.568 1.814 1.175 1.21 1.81 2.814 1.904 4.813l.013.733c0 1.373-.266 2.599-.798 3.68-.523 1.081-1.278 1.917-2.265 2.509-.978.592-2.11.888-3.397.888-1.964 0-3.538-.652-4.722-1.956-1.175-1.313-1.763-3.058-1.763-5.237v-.154zm3.126.27c0 1.433.296 2.556.888 3.371.592.806 1.416 1.209 2.471 1.209s1.874-.412 2.458-1.235c.592-.824.888-2.029.888-3.616 0-1.407-.305-2.522-.914-3.346-.6-.824-1.42-1.235-2.458-1.235-1.021 0-1.832.408-2.432 1.222-.6.806-.901 2.016-.901 3.629zm33.79.154c-.103 2.145-.631 3.839-1.583 5.083-.952 1.235-2.243 1.853-3.873 1.853-1.553 0-2.591-.661-3.114-1.982-.437.652-.948 1.141-1.531 1.467a3.626 3.626 0 0 1-1.814.489c-1.253 0-2.205-.515-2.857-1.544-.643-1.029-.888-2.406-.733-4.131.137-1.398.476-2.659 1.016-3.783.549-1.124 1.24-1.99 2.072-2.599.841-.618 1.733-.926 2.677-.926.721 0 1.355.09 1.904.27.558.18 1.21.553 1.956 1.119l-.669 7.244c-.163 1.699.326 2.548 1.467 2.548.875 0 1.591-.468 2.149-1.403.566-.944.875-2.162.927-3.654.146-3.165-.468-5.589-1.84-7.27-1.364-1.681-3.419-2.522-6.164-2.522-1.681 0-3.174.42-4.478 1.261-1.295.841-2.325 2.059-3.088 3.654-.763 1.587-1.184 3.397-1.261 5.43-.103 2.067.142 3.852.734 5.353.6 1.493 1.514 2.629 2.741 3.41 1.235.781 2.741 1.171 4.517 1.171.721 0 1.471-.086 2.252-.257.789-.171 1.458-.403 2.007-.695l.489 1.763c-.523.343-1.231.618-2.123.824-.884.214-1.776.322-2.677.322-2.179 0-4.049-.463-5.61-1.39-1.561-.918-2.732-2.252-3.513-4.002-.806-1.81-1.162-3.976-1.068-6.498.103-2.35.63-4.461 1.583-6.331.952-1.879 2.252-3.337 3.899-4.375 1.656-1.038 3.539-1.557 5.649-1.557 2.136 0 3.972.472 5.507 1.415 1.544.935 2.698 2.286 3.461 4.053.763 1.759 1.094 3.822.991 6.189zm-12.983 1.235c-.111 1.167-.009 2.055.309 2.664.317.6.824.901 1.518.901.463 0 .901-.202 1.313-.605.412-.412.746-.974 1.004-1.686l.579-6.344a3.505 3.505 0 0 0-1.248-.245c-.952 0-1.729.45-2.329 1.351-.6.892-.982 2.213-1.145 3.963zm15.698-1.634c0-2.145.498-3.865 1.493-5.16.995-1.304 2.329-1.956 4.002-1.956 1.476 0 2.668.515 3.577 1.544V4.705h3.127V24.47h-2.831l-.154-1.441c-.935 1.132-2.183 1.698-3.745 1.698-1.63 0-2.951-.656-3.963-1.969-1.004-1.312-1.505-3.097-1.505-5.353zm3.127.27c0 1.416.27 2.522.811 3.32.549.789 1.325 1.184 2.329 1.184 1.278 0 2.213-.571 2.805-1.711v-5.945c-.575-1.115-1.501-1.673-2.779-1.673-1.012 0-1.793.403-2.342 1.21-.549.798-.824 2.003-.824 3.616zm18.992 7.052c-1.982 0-3.59-.622-4.825-1.866-1.227-1.253-1.84-2.917-1.84-4.993v-.386c0-1.39.266-2.629.798-3.719.54-1.098 1.295-1.952 2.265-2.561s2.05-.914 3.243-.914c1.896 0 3.358.605 4.388 1.814 1.038 1.21 1.557 2.921 1.557 5.134v1.261h-9.097c.094 1.149.476 2.059 1.145 2.728.678.669 1.527 1.004 2.548 1.004 1.432 0 2.599-.579 3.5-1.737l1.686 1.608a5.67 5.67 0 0 1-2.239 1.943c-.927.455-1.969.682-3.127.682zM143.67 12.8c-.858 0-1.553.3-2.085.901-.523.601-.858 1.437-1.004 2.509h5.958v-.232c-.069-1.047-.347-1.836-.836-2.368-.489-.54-1.167-.811-2.033-.811zm13.652 7.707 2.947-9.96h3.23l-4.825 13.923h-2.715l-4.864-13.923h3.243l2.985 9.959zm16.47.18c0-.558-.232-.982-.695-1.274-.455-.292-1.214-.549-2.278-.772s-1.952-.506-2.664-.849c-1.561-.755-2.342-1.849-2.342-3.281 0-1.201.506-2.205 1.518-3.011s2.299-1.21 3.86-1.21c1.664 0 3.007.412 4.027 1.235 1.029.824 1.544 1.892 1.544 3.204h-3.127c0-.601-.223-1.098-.669-1.493-.446-.403-1.038-.605-1.776-.605-.686 0-1.248.159-1.686.476a1.505 1.505 0 0 0-.643 1.274c0 .48.201.854.605 1.12s1.218.536 2.445.811c1.227.266 2.187.588 2.882.965.703.369 1.222.815 1.557 1.338.343.523.515 1.158.515 1.904 0 1.252-.519 2.269-1.557 3.05-1.038.772-2.398 1.158-4.079 1.158-1.141 0-2.158-.206-3.05-.618s-1.587-.978-2.085-1.699c-.498-.721-.746-1.497-.746-2.329h3.037c.043.738.322 1.308.837 1.711.515.395 1.197.592 2.046.592.824 0 1.45-.155 1.879-.463.429-.317.643-.729.643-1.235zm10.255-13.523v3.384h2.458v2.316h-2.458v7.772c0 .532.103.918.309 1.158.215.232.592.347 1.132.347.36 0 .725-.043 1.094-.129v2.419a7.712 7.712 0 0 1-2.059.296c-2.402 0-3.603-1.325-3.603-3.976v-7.888h-2.29v-2.316h2.29V7.163h3.127zm13.818 15.943c-.917 1.081-2.221 1.621-3.912 1.621-1.51 0-2.654-.442-3.435-1.325-.772-.884-1.158-2.162-1.158-3.835v-9.02h3.127v8.982c0 1.767.734 2.651 2.2 2.651 1.519 0 2.543-.545 3.076-1.634v-9.998h3.127v13.923h-2.948l-.077-1.364zm6.152-5.701c0-2.145.497-3.865 1.493-5.16.994-1.304 2.328-1.956 4.002-1.956 1.476 0 2.667.515 3.576 1.544V4.705h3.127V24.47h-2.831l-.154-1.441c-.936 1.132-2.184 1.698-3.744 1.698-1.63 0-2.952-.656-3.962-1.969-1.005-1.312-1.506-3.097-1.506-5.353zm3.127.27c0 1.416.269 2.522.811 3.32.548.789 1.325 1.184 2.328 1.184 1.278 0 2.214-.571 2.805-1.711v-5.945c-.574-1.115-1.5-1.673-2.78-1.673-1.011 0-1.792.403-2.342 1.21-.548.798-.823 2.003-.823 3.616zm16.186 6.795h-3.127V10.548h3.127v13.923zm-3.319-17.539c0-.48.149-.879.45-1.197.309-.317.745-.476 1.312-.476s1.003.159 1.312.476c.309.317.463.716.463 1.197 0 .472-.154.866-.463 1.184-.309.309-.745.463-1.312.463s-1.003-.154-1.312-.463c-.301-.317-.45-.712-.45-1.184zm6.677 10.449c0-1.364.271-2.591.811-3.68.54-1.098 1.299-1.939 2.278-2.522.977-.592 2.101-.888 3.371-.888 1.879 0 3.401.605 4.567 1.814 1.176 1.21 1.811 2.814 1.905 4.813l.013.733c0 1.373-.265 2.599-.798 3.68-.523 1.081-1.278 1.917-2.264 2.509-.977.592-2.11.888-3.398.888-1.963 0-3.537-.652-4.721-1.956-1.176-1.313-1.764-3.058-1.764-5.237v-.154zm3.127.27c0 1.433.296 2.556.888 3.371.591.806 1.416 1.209 2.47 1.209 1.056 0 1.875-.412 2.458-1.235.593-.824.888-2.029.888-3.616 0-1.407-.305-2.522-.915-3.346-.6-.824-1.419-1.235-2.456-1.235-1.022 0-1.832.408-2.432 1.222-.6.806-.902 2.016-.902 3.629zm14.938 3.525c.584 0 1.035.167 1.352.502.318.326.476.738.476 1.235 0 .489-.158.896-.476 1.222-.316.317-.768.476-1.352.476-.557 0-.998-.159-1.325-.476-.326-.318-.488-.725-.488-1.222s.158-.909.476-1.235c.316-.334.762-.502 1.336-.502zm11.659 1.056c.779 0 1.427-.227 1.943-.682.514-.455.789-1.016.823-1.686h2.948a4.644 4.644 0 0 1-.811 2.432c-.506.746-1.192 1.338-2.059 1.776a6.139 6.139 0 0 1-2.805.656c-1.946 0-3.492-.63-4.632-1.892s-1.711-3.002-1.711-5.224v-.322c0-2.119.567-3.813 1.698-5.083 1.133-1.278 2.677-1.917 4.632-1.917 1.656 0 3.002.485 4.041 1.454 1.047.961 1.594 2.226 1.647 3.796h-2.948c-.034-.798-.309-1.454-.823-1.969-.506-.515-1.154-.772-1.943-.772-1.013 0-1.794.369-2.344 1.107-.548.729-.826 1.84-.836 3.333v.502c0 1.51.271 2.638.811 3.384.548.738 1.338 1.106 2.368 1.106zm8.015-4.851c0-1.364.271-2.591.811-3.68.54-1.098 1.299-1.939 2.278-2.522.977-.592 2.101-.888 3.371-.888 1.879 0 3.401.605 4.567 1.814 1.176 1.21 1.811 2.814 1.905 4.813l.013.733c0 1.373-.265 2.599-.798 3.68-.523 1.081-1.278 1.917-2.264 2.509-.977.592-2.11.888-3.398.888-1.963 0-3.537-.652-4.721-1.956-1.176-1.313-1.764-3.058-1.764-5.237v-.154zm3.127.27c0 1.433.296 2.556.888 3.371.591.806 1.416 1.209 2.47 1.209 1.056 0 1.875-.412 2.458-1.235.593-.824.888-2.029.888-3.616 0-1.407-.305-2.522-.915-3.346-.6-.824-1.419-1.235-2.456-1.235-1.022 0-1.832.408-2.432 1.222-.6.806-.902 2.016-.902 3.629zm15.93-7.103.09 1.454c.977-1.141 2.315-1.711 4.013-1.711 1.862 0 3.136.712 3.823 2.136 1.013-1.424 2.436-2.136 4.271-2.136 1.536 0 2.677.425 3.424 1.274.755.849 1.141 2.102 1.158 3.757v9.149h-3.127v-9.059c0-.884-.194-1.531-.58-1.943s-1.024-.618-1.916-.618c-.713 0-1.297.193-1.751.579-.446.377-.759.875-.939 1.493l.013 9.548h-3.127v-9.162c-.043-1.638-.881-2.458-2.509-2.458-1.254 0-2.14.51-2.664 1.531V24.47h-3.128V10.547h2.948zM27.294 3.765H2.823A2.827 2.827 0 0 0-.001 6.589V23.53a2.827 2.827 0 0 0 2.824 2.824h24.471a2.827 2.827 0 0 0 2.824-2.824V6.589a2.827 2.827 0 0 0-2.824-2.824zm0 1.882c.128 0 .249.027.361.073L15.059 16.637 2.463 5.72a.942.942 0 0 1 .361-.073h24.471zm0 18.824H2.823a.942.942 0 0 1-.941-.941V7.709l12.56 10.885a.942.942 0 0 0 1.234 0l12.56-10.885V23.53a.942.942 0 0 1-.941.941z"/></symbol><symbol id="icon-Ellipse-1" viewBox="0 0 32 32"><path d="M32 16c0 4.418-1.791 8.418-4.686 11.314S20.419 32 16 32s-8.418-1.791-11.314-4.686C1.791 24.419 0 20.419 0 16S1.791 7.582 4.686 4.686 11.581 0 16 0c4.418 0 8.418 1.791 11.314 4.686S32 11.581 32 16z"/><path fill="#afb1b8" style="fill:var(--color3, #afb1b8)" d="M23.273 11.49a6.248 6.248 0 0 1-1.718.471 2.967 2.967 0 0 0 1.312-1.648 5.963 5.963 0 0 1-1.891.722 2.981 2.981 0 0 0-5.158 2.039c0 .236.02.464.069.68a8.439 8.439 0 0 1-6.146-3.119 2.985 2.985 0 0 0 .917 3.985 2.943 2.943 0 0 1-1.347-.367v.033a2.996 2.996 0 0 0 2.389 2.93 2.992 2.992 0 0 1-.782.098 2.64 2.64 0 0 1-.565-.051 3.01 3.01 0 0 0 2.786 2.077 5.991 5.991 0 0 1-3.697 1.272 5.59 5.59 0 0 1-.714-.041 8.393 8.393 0 0 0 4.575 1.338c5.487 0 8.487-4.545 8.487-8.485 0-.132-.005-.259-.011-.385a5.95 5.95 0 0 0 1.495-1.548z"/></symbol><symbol id="icon-Ellipse-2" viewBox="0 0 32 32"><path fill="#fff" style="fill:var(--color2, #fff)" d="M32 16c0 4.418-1.791 8.418-4.686 11.314S20.419 32 16 32s-8.418-1.791-11.314-4.686C1.791 24.419 0 20.419 0 16S1.791 7.582 4.686 4.686 11.581 0 16 0c4.418 0 8.418 1.791 11.314 4.686S32 11.581 32 16z"/><path fill="#afb1b8" style="fill:var(--color3, #afb1b8)" d="M18.422 11.142h1.328V8.829a17.317 17.317 0 0 0-1.935-.102c-1.915 0-3.226 1.204-3.226 3.418v2.037h-2.113v2.585h2.113v6.505h2.59v-6.505h2.027l.322-2.585h-2.35v-1.781c.001-.747.202-1.259 1.243-1.259z"/></symbol><symbol id="icon-Ellipse-3" viewBox="0 0 32 32"><path fill="#fff" style="fill:var(--color2, #fff)" d="M32 16c0 4.418-1.791 8.418-4.686 11.314S20.419 32 16 32s-8.418-1.791-11.314-4.686C1.791 24.419 0 20.419 0 16S1.791 7.582 4.686 4.686 11.581 0 16 0c4.418 0 8.418 1.791 11.314 4.686S32 11.581 32 16z"/><path fill="#afb1b8" style="fill:var(--color3, #afb1b8)" d="M23.269 23.273v-.001h.004v-5.335c0-2.61-.562-4.62-3.613-4.62-1.467 0-2.451.805-2.853 1.568h-.042v-1.324h-2.893v9.711h3.012v-4.809c0-1.266.24-2.49 1.808-2.49 1.545 0 1.568 1.445 1.568 2.572v4.728h3.009zM8.967 13.562h3.016v9.711H8.967v-9.711zM10.474 8.727c-.964 0-1.747.782-1.747 1.747s.782 1.763 1.747 1.763c.964 0 1.747-.799 1.747-1.763s-.783-1.747-1.747-1.747z"/></symbol><symbol id="icon-Ellipse" viewBox="0 0 32 32"><path fill="#fff" style="fill:var(--color2, #fff)" d="M32 16c0 4.418-1.791 8.418-4.686 11.314S20.419 32 16 32s-8.418-1.791-11.314-4.686C1.791 24.419 0 20.419 0 16S1.791 7.582 4.686 4.686 11.581 0 16 0c4.418 0 8.418 1.791 11.314 4.686S32 11.581 32 16z"/><path fill="#afb1b8" style="fill:var(--color3, #afb1b8)" d="M23.258 13.004c-.034-.773-.159-1.304-.338-1.765a3.557 3.557 0 0 0-.841-1.29 3.589 3.589 0 0 0-1.287-.838c-.463-.179-.992-.304-1.764-.338-.779-.037-1.026-.046-3.001-.046s-2.222.009-2.998.043c-.773.034-1.304.159-1.764.338a3.557 3.557 0 0 0-1.29.841 3.589 3.589 0 0 0-.838 1.287c-.179.463-.304.992-.338 1.764-.037.779-.045 1.026-.045 3.001s.008 2.222.043 2.998c.034.773.159 1.304.338 1.765.185.489.472.926.841 1.29.364.369.804.656 1.287.838.463.179.992.304 1.765.338.776.034 1.023.043 2.998.043s2.222-.008 2.998-.043c.773-.034 1.304-.159 1.764-.338a3.72 3.72 0 0 0 2.128-2.128c.179-.463.304-.992.338-1.765.034-.776.043-1.023.043-2.998s-.003-2.222-.037-2.998zm-1.309 5.938c-.031.71-.151 1.094-.25 1.35a2.409 2.409 0 0 1-1.381 1.381c-.256.099-.642.219-1.35.25-.767.034-.997.043-2.938.043s-2.174-.008-2.938-.043c-.71-.031-1.094-.15-1.35-.25a2.228 2.228 0 0 1-.835-.543 2.264 2.264 0 0 1-.543-.835c-.099-.256-.219-.642-.25-1.35-.034-.767-.043-.997-.043-2.938s.008-2.174.043-2.938c.031-.71.151-1.094.25-1.35.117-.315.301-.602.546-.835.236-.242.52-.426.835-.543.256-.099.642-.219 1.35-.25.767-.034.997-.043 2.938-.043 1.944 0 2.174.008 2.938.043.71.031 1.094.151 1.35.25.315.116.602.301.835.543.241.236.426.52.543.835.099.256.219.642.25 1.35.034.767.043.997.043 2.938s-.009 2.168-.043 2.935z"/><path fill="#afb1b8" style="fill:var(--color3, #afb1b8)" d="M16.027 12.265a3.737 3.737 0 0 0 0 7.472c2.063 0 3.737-1.674 3.737-3.736s-1.674-3.736-3.737-3.736zm0 6.16a2.424 2.424 0 1 1 0-4.849 2.424 2.424 0 0 1 0 4.849zM20.784 12.117a.872.872 0 1 1-1.744 0 .872.872 0 0 1 1.744 0z"/></symbol></defs></svg>